<svg width="160" height="48" viewBox="0 0 160 48" fill="none" xmlns="http://www.w3.org/2000/svg">
  <rect width="160" height="48" rx="12" fill="#F0F4FF"/>
  <g transform="translate(16,12)">
    <path d="M18 24C8.05888 24 0 18.6274 0 12C0 5.37258 8.05888 0 18 0C23.912 0 29.0262 1.98143 32.1213 5.17157C32.7071 5.75736 32.7071 6.70711 32.1213 7.29289L28.2929 11.1213C27.7071 11.7071 26.7574 11.7071 26.1716 11.1213C24.5159 9.46558 21.4561 8.4 18 8.4C12.2533 8.4 7.80002 10.9871 7.80002 12C7.80002 13.0129 12.2533 15.6 18 15.6C20.3009 15.6 22.4001 15.1983 24.0854 14.5165C24.8724 14.1974 25.7579 14.4442 26.2929 15.0781L29.7071 19.0781C30.2421 19.712 30.122 20.655 29.4209 21.1096C25.9586 23.369 22.0937 24.8 18 24.8H18Z" fill="#0F62FE"/>
    <path d="M41 4H48C55.732 4 62 10.268 62 18C62 25.732 55.732 32 48 32H41C40.4477 32 40 31.5523 40 31V5C40 4.44772 40.4477 4 41 4Z" fill="#3DD6D0"/>
  </g>
  <text x="60" y="30" fill="#102A43" font-family="'Inter', 'Segoe UI', sans-serif" font-size="18" font-weight="600">D-Logic Boat</text>
</svg>
