<svg width="32" height="32" viewBox="0 0 32 32" fill="none" xmlns="http://www.w3.org/2000/svg">
  <rect width="32" height="32" rx="6" fill="#F0F4FF"/>
  <g transform="translate(4,8)">
    <path d="M12 16C5.37258 16 0 12.4183 0 8C0 3.58172 5.37258 0 12 0C15.9413 0 19.3508 1.32095 21.4142 3.44772C21.8047 3.83824 21.8047 4.47141 21.4142 4.86193L18.8619 7.41421C18.4714 7.80474 17.8382 7.80474 17.4477 7.41421C16.3439 6.31039 14.3041 5.6 12 5.6C8.16887 5.6 5.20001 7.32474 5.20001 8C5.20001 8.67526 8.16887 10.4 12 10.4C13.534 10.4 14.9334 10.1322 16.0569 9.67767C16.5816 9.46493 17.1719 9.62947 17.5286 10.052L19.8047 12.7187C20.1614 13.1413 20.0813 13.77 19.6139 14.073C17.3057 15.5793 14.7291 16.5333 12 16.5333H12Z" fill="#0F62FE"/>
    <path d="M23.5 2.66667H25.3333C28.4609 2.66667 31 5.20578 31 8.33333V15.6667C31 18.7942 28.4609 21.3333 25.3333 21.3333H23.5C23.2239 21.3333 23 21.1094 23 20.8333V3.16667C23 2.89052 23.2239 2.66667 23.5 2.66667Z" fill="#3DD6D0"/>
  </g>
</svg>
